HIERARCHY
ROOT Hips
{
	OFFSET 0.000000 0.000000 0.000000 
	CHANNELS 6 Xposition Yposition Zposition Zrotation Yrotation Xrotation
	JOINT LeftUpLeg
	{
		OFFSET 1.363060 -1.794630 0.839290 
		CHANNELS 3 Zrotation Yrotation Xrotation
		JOINT LeftLeg
		{
			OFFSET 2.448110 -6.726130 0.000000 
			CHANNELS 3 Zrotation Yrotation Xrotation
			JOINT LeftFoot
			{
				OFFSET 2.562200 -7.039590 0.000000 
				CHANNELS 3 Zrotation Yrotation Xrotation
				JOINT LeftToeBase
				{
					OFFSET 0.157640 -0.433110 2.322550 
					CHANNELS 3 Zrotation Yrotation Xrotation
					End Site
					{
						OFFSET 0.000000 0.000000 0.000000 
					}
				}
			}
		}
	}
	JOINT RightUpLeg
	{
		OFFSET -1.305520 -1.794630 0.839290 
		CHANNELS 3 Zrotation Yrotation Xrotation
		JOINT RightLeg
		{
			OFFSET -2.542530 -6.985550 0.000000 
			CHANNELS 3 Zrotation Yrotation Xrotation
			JOINT RightFoot
			{
				OFFSET -2.568260 -7.056230 0.000000 
				CHANNELS 3 Zrotation Yrotation Xrotation
				JOINT RightToeBase
				{
					OFFSET -0.164730 -0.452590 2.363150 
					CHANNELS 3 Zrotation Yrotation Xrotation
					End Site
					{
						OFFSET 0.000000 0.000000 0.000000 
					}
				}
			}
		}
	}
	JOINT Spine
	{
		OFFSET 0.028270 2.035590 -0.193380 
		CHANNELS 3 Zrotation Yrotation Xrotation
		JOINT Spine1
		{
			OFFSET 0.056720 2.048850 -0.042750 
			CHANNELS 3 Zrotation Yrotation Xrotation
			JOINT Neck1
			{
				OFFSET -0.054170 1.746240 0.172020 
				CHANNELS 3 Zrotation Yrotation Xrotation
				JOINT Head
				{
					OFFSET 0.104070 1.761360 -0.123970 
					CHANNELS 3 Zrotation Yrotation Xrotation
					End Site
					{
						OFFSET 0.000000 0.000000 0.000000 
					}
				}
			}
			JOINT LeftArm
			{
				OFFSET 3.362410 1.200890 -0.311210 
				CHANNELS 3 Zrotation Yrotation Xrotation
				JOINT LeftForeArm
				{
					OFFSET 4.983000 -0.000000 -0.000000 
					CHANNELS 3 Zrotation Yrotation Xrotation
					JOINT LeftHand
					{
						OFFSET 3.483560 -0.000000 -0.000000 
						CHANNELS 3 Zrotation Yrotation Xrotation
						JOINT LeftHandIndex1
						{
							OFFSET 0.715260 -0.000000 -0.000000 
							CHANNELS 3 Zrotation Yrotation Xrotation
							End Site
							{
								OFFSET 0.000000 0.000000 0.000000 
							}
						}
					}
				}
			}
			JOINT RightArm
			{
				OFFSET -3.136600 1.374050 -0.404650 
				CHANNELS 3 Zrotation Yrotation Xrotation
				JOINT RightForeArm
				{
					OFFSET -5.241900 -0.000000 -0.000000 
					CHANNELS 3 Zrotation Yrotation Xrotation
					JOINT RightHand
					{
						OFFSET -3.444170 -0.000000 -0.000000 
						CHANNELS 3 Zrotation Yrotation Xrotation
						JOINT RightHandIndex1
						{
							OFFSET -0.622530 -0.000000 -0.000000 
							CHANNELS 3 Zrotation Yrotation Xrotation
							End Site
							{
								OFFSET 0.000000 0.000000 0.000000 
							}
						}
					}
				}
			}
		}
	}
}
MOTION
Frames: 6
Frame Time: 0.041667
10.431020 17.603541 1.204232 159.969157 -54.782853 -133.205143 -12.635049 -15.339415 -8.008303 -0.819771 3.258401 9.203990 3.090709 2.620025 -34.367448 0.960900 6.241600 17.486900 -3.040801 19.303817 -44.151198 -1.243664 -11.144866 27.095784 -0.439417 -0.754032 -13.652536 -2.963900 10.636300 -31.063000 1.330869 4.139439 -4.752963 -0.879037 2.155662 -3.909764 -1.453790 5.466939 -7.643814 -1.639100 2.466300 -3.213100 -80.811429 2.045908 -34.770452 22.619844 -31.619880 -9.077898 -1.529437 -0.141674 -43.025624 -7.125000 0.000000 0.000000 82.203338 20.449118 81.853052 -113.187151 51.876946 -69.678025 3.847275 -0.939445 6.261405 7.125000 0.000000 0.000000 
10.419199 17.605261 1.193808 159.768041 -55.155810 -132.790529 -12.337429 -15.801542 -8.266712 -0.824015 3.284611 9.241305 3.119564 2.636689 -34.551472 1.057800 6.539500 18.358200 -3.027518 19.138121 -44.225536 -1.239799 -11.168054 27.132494 -0.450495 -0.892552 -13.871675 -2.941600 10.599900 -30.942200 1.362819 4.022886 -4.756294 -0.951826 2.096479 -3.686486 -1.987793 6.258308 -7.245097 -1.834400 2.863300 -2.887700 -81.010821 1.941307 -34.949132 22.855807 -31.841762 -9.205274 -1.522600 -0.128564 -42.701826 -7.125000 0.000000 0.000000 82.069104 20.623148 81.909220 -113.452707 51.772528 -69.988880 3.831819 -0.935633 6.033003 7.125000 0.000000 0.000000 
10.408560 17.603756 1.182095 159.159118 -55.147636 -132.248381 -12.636530 -15.929112 -8.254711 -0.855545 3.244962 9.150211 3.056854 3.438426 -34.679693 0.965900 6.257500 17.533500 -3.397412 18.943138 -44.166080 -1.245840 -11.188915 27.174057 -0.459553 -0.936186 -14.040030 -2.874400 10.488900 -30.574800 1.340332 3.977277 -4.744634 -0.945330 2.072831 -3.565923 -2.832205 7.021734 -7.049107 -2.240100 3.230400 -2.655600 -81.055709 1.852636 -35.063651 23.057142 -32.029343 -9.317379 -1.517451 -0.119571 -42.388150 -7.125000 0.000000 0.000000 81.789147 20.562061 81.955572 -114.257230 51.440186 -71.034235 3.795527 -0.856555 5.764081 7.125000 0.000000 0.000000 
10.404476 17.602789 1.168340 158.769901 -55.232109 -132.002893 -12.749113 -15.887287 -8.186208 -0.884683 3.196834 9.035412 2.973794 4.218897 -34.705339 0.901700 6.051600 16.934200 -3.501502 18.905686 -43.927690 -1.245369 -11.176692 27.162620 -0.468701 -1.018439 -14.204231 -2.817000 10.392800 -30.258300 1.308410 4.069775 -4.741944 -1.048136 2.113005 -3.563789 -3.522053 7.839476 -6.789782 -2.583600 3.621200 -2.377600 -80.805894 1.761123 -34.746805 23.179546 -32.153870 -9.395069 -1.518099 -0.120966 -42.223826 -7.125000 0.000000 0.000000 82.003358 20.580821 81.626692 -114.186078 51.437401 -71.069427 3.801288 -0.881277 5.663523 7.125000 0.000000 0.000000 
10.408130 17.603434 1.156411 158.599755 -55.535257 -131.871647 -12.515184 -15.895358 -8.302210 -0.890431 3.194925 9.018895 2.945747 4.404429 -34.682571 0.967000 6.261000 17.543500 -3.336997 18.880061 -43.794522 -1.254390 -11.198232 27.246241 -0.479485 -1.096688 -14.399468 -2.786500 10.341200 -30.088700 1.287375 4.189400 -4.758599 -1.189564 2.173113 -3.669875 -4.020485 8.900793 -6.929421 -2.783500 4.150000 -2.362600 -80.561327 1.651690 -34.324668 23.317271 -32.296903 -9.485240 -1.525039 -0.124598 -42.122714 -7.125000 0.000000 0.000000 82.082512 20.523232 81.277303 -114.231632 51.396391 -71.208876 3.800466 -0.871917 5.369488 7.125000 0.000000 0.000000 
10.402649 17.608377 1.146632 158.253944 -55.713409 -131.709931 -12.578714 -16.241710 -8.089814 -0.889710 3.163094 8.948324 3.061923 3.935873 -34.995762 1.115900 6.710800 18.861300 -3.395776 18.738723 -43.532774 -1.264473 -11.209869 27.300220 -0.490477 -1.109324 -14.581481 -2.750100 10.279000 -29.885100 1.214086 4.367351 -4.763235 -1.499427 2.248815 -3.734184 -4.980348 9.726098 -6.596897 -3.200900 4.542400 -1.988800 -80.287802 1.545495 -33.706726 23.510597 -32.502212 -9.612234 -1.536810 -0.122282 -42.113841 -7.125000 0.000000 0.000000 82.033925 20.393368 80.780140 -114.421635 51.310137 -71.504118 3.793949 -0.855904 5.361884 7.125000 0.000000 0.000000 
